<svg id="Livello_1" data-name="Livello 1" xmlns="http://www.w3.org/2000/svg" xmlns:xlink="http://www.w3.org/1999/xlink" viewBox="0 0 1920 414"><defs><style>.cls-1{fill:none;}.cls-2{fill:#434343;}.cls-3{fill:#b5b5b5;}.cls-4{fill:#4d4d4d;}.cls-5{fill:url(#_10_ppp_20_2);}.cls-6{fill:#2f65b2;}</style><pattern id="_10_ppp_20_2" data-name="10 ppp 20% 2" width="28.8" height="28.8" patternTransform="translate(-68.14 -57.73) rotate(135) scale(0.84)" patternUnits="userSpaceOnUse" viewBox="0 0 28.8 28.8"><rect class="cls-1" width="28.8" height="28.8"/><path class="cls-2" d="M28.8,30.24a1.44,1.44,0,1,0-1.44-1.44A1.44,1.44,0,0,0,28.8,30.24Z"/><path class="cls-2" d="M14.4,30.24A1.44,1.44,0,1,0,13,28.8,1.44,1.44,0,0,0,14.4,30.24Z"/><path class="cls-2" d="M28.8,15.84a1.44,1.44,0,1,0-1.44-1.44A1.44,1.44,0,0,0,28.8,15.84Z"/><path class="cls-2" d="M14.4,15.84A1.44,1.44,0,1,0,13,14.4,1.44,1.44,0,0,0,14.4,15.84Z"/><path class="cls-2" d="M7.2,23A1.44,1.44,0,1,0,5.76,21.6,1.44,1.44,0,0,0,7.2,23Z"/><path class="cls-2" d="M21.6,23a1.44,1.44,0,1,0-1.44-1.44A1.44,1.44,0,0,0,21.6,23Z"/><path class="cls-2" d="M7.2,8.64A1.44,1.44,0,1,0,5.76,7.2,1.44,1.44,0,0,0,7.2,8.64Z"/><path class="cls-2" d="M21.6,8.64A1.44,1.44,0,1,0,20.16,7.2,1.44,1.44,0,0,0,21.6,8.64Z"/><path class="cls-2" d="M0,30.24A1.44,1.44,0,0,0,1.44,28.8,1.45,1.45,0,0,0,0,27.36,1.44,1.44,0,0,0-1.44,28.8,1.43,1.43,0,0,0,0,30.24Z"/><path class="cls-2" d="M0,15.84A1.44,1.44,0,0,0,1.44,14.4,1.45,1.45,0,0,0,0,13,1.44,1.44,0,0,0-1.44,14.4,1.43,1.43,0,0,0,0,15.84Z"/><path class="cls-2" d="M28.8,1.44A1.45,1.45,0,0,0,30.24,0,1.44,1.44,0,0,0,28.8-1.44,1.43,1.43,0,0,0,27.36,0,1.44,1.44,0,0,0,28.8,1.44Z"/><path class="cls-2" d="M14.4,1.44A1.45,1.45,0,0,0,15.84,0,1.44,1.44,0,0,0,14.4-1.44,1.43,1.43,0,0,0,13,0,1.44,1.44,0,0,0,14.4,1.44Z"/><path class="cls-2" d="M0,1.44A1.45,1.45,0,0,0,1.44,0,1.44,1.44,0,0,0,0-1.44,1.43,1.43,0,0,0-1.44,0,1.44,1.44,0,0,0,0,1.44Z"/></pattern></defs><title>Senza titolo-2</title><path class="cls-3" d="M105,80.32l-12.89,0L70.41,80.3H67.17c1.48-.48,3-.91,4.51-1.27L92.1,79l8.11,0Q102.64,79.55,105,80.32Z"/><path class="cls-3" d="M117.2,85.87l-3.41,0L92.1,86l-21.69-.07-15.5,0c.69-.42,1.39-.81,2.1-1.19l13.4,0,21.69-.06,21.69.06H115C115.73,85,116.47,85.44,117.2,85.87Z"/><path class="cls-3" d="M125.07,91.45c-3.76,0-7.52,0-11.28,0l-21.69.06-21.69-.06c-7.22,0-14.45,0-21.68-.11H47.08c.43-.36.86-.71,1.3-1h.35c7.23-.08,14.46-.07,21.68-.1l21.69-.06,21.69.06,9.77,0C124.07,90.62,124.57,91,125.07,91.45Z"/><path class="cls-3" d="M130.91,97c-5.71,0-11.42,0-17.12,0l-21.69.07-21.69-.07c-7.22,0-14.45,0-21.68-.09l-7.5-.07c.3-.32.59-.64.9-1l6.6-.06c7.23-.08,14.46-.07,21.68-.1l21.69-.06,21.69.06c5.33,0,10.67,0,16,0C130.18,96.22,130.55,96.61,130.91,97Z"/><path class="cls-3" d="M135.45,102.55c-7.22.09-14.44.07-21.66.1l-21.69.07-21.69-.07c-7.22,0-14.45,0-21.68-.1l-12.06-.1.65-.87,11.41-.1c7.23-.09,14.46-.07,21.68-.1l21.69-.07,21.69.06c6.95,0,13.9,0,20.85.1C134.92,101.82,135.19,102.19,135.45,102.55Z"/><path class="cls-3" d="M139,108.11l-3.57,0c-7.23.08-14.46.06-21.68.09l-21.69.06-21.69-.06c-7.22,0-14.45,0-21.68-.1L33.07,108l.46-.8,15.2-.13C56,107,63.19,107,70.41,107l21.69-.07,21.69.07c7.22,0,14.45,0,21.68.1l3,0C138.65,107.43,138.85,107.77,139,108.11Z"/><path class="cls-3" d="M141.85,113.68l-6.38,0c-7.23.09-14.46.07-21.68.1l-21.69.06-21.69-.06c-7.22,0-14.45,0-21.68-.1l-18.49-.16.34-.75,18.15-.16c7.23-.09,14.46-.07,21.68-.1l21.69-.07,21.69.07c7.22,0,14.45,0,21.68.09l5.95.06Z"/><path class="cls-3" d="M144,119.24l-8.53.08c-7.23.09-14.46.07-21.68.1l-21.69.06-21.69-.06c-7.22,0-14.45,0-21.68-.1l-20.64-.19c.07-.23.15-.46.23-.7l20.41-.18c7.23-.09,14.46-.07,21.68-.11l21.69-.06,21.69.06c7.22,0,14.45,0,21.68.1l8.21.08Z"/><path class="cls-3" d="M145.54,124.82l-10.07.09c-7.23.09-14.46.07-21.68.1l-21.69.06L70.42,125c-7.23,0-14.46,0-21.69-.1l-21.68-.2h-.52c0-.22.1-.44.16-.66h.36l21.68-.2c7.23-.08,14.46-.07,21.69-.09l21.68-.07,21.69.06c7.22,0,14.45,0,21.68.1l9.86.09Z"/><path class="cls-3" d="M146.53,130.4l-11.06.1c-7.23.09-14.46.07-21.68.1l-21.69.06-21.69-.06c-7.22,0-14.45,0-21.68-.1l-21.68-.2-1.52,0c0-.22,0-.43.09-.64l1.43,0,21.68-.2c7.23-.08,14.46-.06,21.68-.1l21.69-.06,21.69.06c7.22,0,14.45,0,21.68.1l10.94.1C146.46,129.81,146.49,130.11,146.53,130.4Z"/><path class="cls-3" d="M147,136l-11.53.1c-7.23.08-14.46.07-21.68.1l-21.69.06-21.69-.06c-7.22,0-14.45,0-21.68-.1l-21.68-.2-2,0c0-.2,0-.42,0-.63l2,0,21.68-.2c7.23-.08,14.46-.07,21.68-.1l21.69-.06,21.69.06c7.22,0,14.45,0,21.68.1l11.49.1C147,135.41,147,135.7,147,136Z"/><path class="cls-3" d="M147,140.7c0,.29,0,.58,0,.88l-11.49.1c-7.23.08-14.46.06-21.68.1l-21.69.06-21.69-.06c-7.22,0-14.45,0-21.68-.11l-21.68-.19-2,0c0-.21,0-.42,0-.62l2,0,21.68-.2c7.23-.08,14.46-.07,21.68-.1l21.69-.06,21.69.06c7.22,0,14.45,0,21.68.1Z"/><path class="cls-3" d="M146.53,146.28c0,.3-.07.59-.12.89l-10.94.1c-7.23.08-14.46.06-21.68.09l-21.69.07-21.69-.07c-7.22,0-14.45,0-21.68-.09l-21.68-.2-1.43,0c0-.21-.06-.42-.09-.64l1.52,0,21.68-.2c7.23-.08,14.46-.07,21.68-.1L92.1,146l21.69.06c7.22,0,14.45,0,21.68.1Z"/><path class="cls-3" d="M145.54,151.87l-.21.9-9.86.08c-7.23.09-14.46.07-21.68.11L92.1,153,70.41,153c-7.22,0-14.45,0-21.68-.1l-21.68-.19h-.36c-.06-.22-.11-.44-.16-.67h.52l21.68-.19c7.23-.09,14.46-.07,21.68-.1l21.69-.07,21.69.07c7.22,0,14.45,0,21.68.1Z"/><path class="cls-3" d="M144,157.45c-.11.3-.21.61-.32.92l-8.21.08c-7.23.08-14.46.06-21.68.09l-21.69.07-21.69-.07c-7.22,0-14.45,0-21.68-.1l-20.41-.19c-.08-.23-.16-.46-.23-.7l20.64-.18c7.23-.09,14.46-.07,21.68-.1l21.69-.06,21.69.06c7.22,0,14.45,0,21.68.1Z"/><path class="cls-3" d="M141.85,163l-.43,1-5.95.05c-7.23.09-14.46.07-21.68.1l-21.69.06-21.69-.06c-7.22,0-14.45,0-21.68-.1l-18.15-.16-.34-.75L48.73,163c7.23-.09,14.46-.07,21.68-.1l21.69-.06,21.69.06c7.22,0,14.45,0,21.68.09Z"/><path class="cls-3" d="M139,168.58c-.19.34-.39.68-.59,1l-3,0c-7.23.09-14.46.07-21.68.1l-21.69.07-21.69-.07c-7.22,0-14.45,0-21.68-.1l-15.2-.13-.46-.8,15.66-.14c7.23-.09,14.46-.07,21.68-.1l21.69-.07,21.69.06c7.22,0,14.45,0,21.68.1Z"/><path class="cls-3" d="M135.45,174.13c-.26.37-.53.73-.81,1.09-6.95.08-13.9.06-20.85.09l-21.69.06-21.69-.06c-7.22,0-14.45,0-21.68-.1l-11.41-.1-.65-.87,12.06-.11c7.23-.08,14.46-.06,21.68-.09L92.1,174l21.69.07C121,174.07,128.23,174.05,135.45,174.13Z"/><path class="cls-3" d="M130.91,179.68c-.36.39-.73.79-1.1,1.17-5.35,0-10.69,0-16,.05L92.1,181l-21.69-.06c-7.22,0-14.45,0-21.68-.1l-6.6-.06-.9-1,7.5-.07c7.23-.08,14.46-.06,21.68-.1l21.69-.06,21.69.06C119.49,179.65,125.2,179.64,130.91,179.68Z"/><path class="cls-3" d="M125.07,185.24c-.5.42-1,.82-1.51,1.22l-9.77,0-21.69.06-21.69-.06c-7.22,0-14.45,0-21.68-.1h-.35c-.44-.34-.87-.69-1.3-1h1.65c7.23-.09,14.46-.07,21.68-.11l21.69-.06,21.69.06Z"/><path class="cls-3" d="M117.2,190.81c-.73.43-1.47.86-2.22,1.26h-1.19l-21.69.06-21.69-.06L57,192c-.71-.38-1.41-.78-2.1-1.19,5.17,0,10.34,0,15.5,0l21.69-.07,21.69.06Z"/><path class="cls-3" d="M105,196.37q-2.35.75-4.78,1.34l-8.11,0-20.42-.06c-1.53-.37-3-.79-4.51-1.27h3.24l21.69-.06Z"/><path class="cls-4" d="M84.69,20V141.38A60.69,60.69,0,0,1,84.69,20Z"/><path class="cls-3" d="M54.86,0A60.69,60.69,0,0,0,1,58.22V0Z"/><circle class="cls-5" cx="160.19" cy="1.41" r="60.59"/><path class="cls-4" d="M59.23,286.27l0-12.88.07-21.69v-3.24c.48,1.47.91,3,1.27,4.5l.06,20.43,0,8.1C60.19,283.11,59.74,284.71,59.23,286.27Z"/><path class="cls-4" d="M53.68,298.49c0-1.14,0-2.28,0-3.42l-.06-21.68.07-21.69c0-5.17,0-10.33,0-15.5.42.68.81,1.38,1.19,2.09,0,4.47,0,8.94,0,13.41L55,273.39l-.06,21.68c0,.4,0,.79,0,1.19C54.53,297,54.11,297.75,53.68,298.49Z"/><path class="cls-4" d="M48.1,306.35c0-3.76,0-7.52,0-11.28L48,273.39l.06-21.69c0-7.23,0-14.46.11-21.69v-1.64c.36.42.71.86,1.05,1.3V230c.08,7.23.07,14.46.1,21.69l.06,21.69-.06,21.68,0,9.77C48.93,305.35,48.52,305.86,48.1,306.35Z"/><path class="cls-4" d="M42.54,312.2c0-5.71,0-11.42,0-17.13l-.07-21.68.07-21.69c0-7.23,0-14.46.1-21.69l.07-7.49.94.89.06,6.6c.08,7.23.07,14.46.1,21.69l.06,21.69-.06,21.68c0,5.34,0,10.68,0,16Q43.14,311.66,42.54,312.2Z"/><path class="cls-4" d="M37,316.74c-.09-7.23-.07-14.45-.1-21.67l-.07-21.68.07-21.69c0-7.23,0-14.46.1-21.69L37.1,218l.87.65.1,11.41c.09,7.23.07,14.46.1,21.69l.07,21.69-.06,21.68c0,6.95,0,13.9-.1,20.86Z"/><path class="cls-4" d="M31.44,320.33l0-3.57c-.08-7.23-.06-14.46-.09-21.69l-.06-21.68.06-21.69c0-7.23,0-14.46.1-21.69l.14-15.66.8.47L32.48,230c.09,7.23.07,14.46.1,21.69l.07,21.69-.07,21.68c0,7.23,0,14.46-.1,21.69l0,3Z"/><path class="cls-4" d="M25.87,323.14l-.05-6.38c-.09-7.23-.07-14.46-.1-21.69l-.06-21.68.06-21.69c0-7.23,0-14.46.1-21.69L26,211.53l.74.33L26.89,230c.09,7.23.07,14.46.11,21.69l.06,21.69L27,295.07c0,7.23,0,14.46-.1,21.69l-.06,5.94Z"/><path class="cls-4" d="M20.31,325.28l-.08-8.52c-.09-7.23-.07-14.46-.1-21.69l-.06-21.68.06-21.69c0-7.23,0-14.46.1-21.69l.19-20.64.7.24L21.3,230c.09,7.23.07,14.46.11,21.69l.06,21.69-.06,21.68c0,7.23,0,14.46-.1,21.69L21.23,325Z"/><path class="cls-4" d="M14.73,326.82l-.09-10.06c-.09-7.23-.06-14.46-.1-21.69l-.06-21.68.06-21.69c0-7.23,0-14.46.1-21.69l.2-21.68c0-.17,0-.34,0-.52l.67.16v.36l.2,21.68c.08,7.23.07,14.46.09,21.69l.07,21.69-.06,21.68c0,7.23,0,14.46-.1,21.69l-.09,9.85Z"/><path class="cls-4" d="M9.15,327.81l-.1-11.05C9,309.53,9,302.3,9,295.07l-.06-21.68L9,251.7c0-7.23,0-14.46.1-21.69l.2-21.68c0-.5,0-1,0-1.52l.64.09c0,.48,0,.95,0,1.43l.2,21.68c.08,7.23.06,14.46.1,21.69l.06,21.69-.06,21.68c0,7.23,0,14.46-.1,21.69L10,327.69C9.74,327.74,9.44,327.78,9.15,327.81Z"/><path class="cls-4" d="M3.56,328.28l-.1-11.52c-.08-7.23-.07-14.46-.1-21.69L3.3,273.39l.06-21.69c0-7.23,0-14.46.1-21.69l.2-21.68,0-2,.63,0c0,.66,0,1.32,0,2L4.54,230c.08,7.23.07,14.46.1,21.69l.06,21.69-.06,21.68c0,7.23,0,14.46-.1,21.69l-.1,11.48Z"/><path class="cls-6" d="M77.45,238.09a33.54,33.54,0,0,1-17.31-2.25,33.58,33.58,0,0,1,17.31,2.25Z"/><path class="cls-6" d="M77.51,247a34.09,34.09,0,0,1-2.27,8.5,33.77,33.77,0,0,1,0-8.8"/><path class="cls-6" d="M75.22,246.65a34.26,34.26,0,0,1,2.27-8.51,34.39,34.39,0,0,1,0,8.81"/><path class="cls-6" d="M94.85,240.35a33.8,33.8,0,0,1-8.8,0,34.26,34.26,0,0,1-8.51-2.27,33.58,33.58,0,0,1,17.31,2.25Z"/><path class="cls-6" d="M79.78,229.45a34.09,34.09,0,0,1-2.27,8.5,34.3,34.3,0,0,1,0-8.8"/><path class="cls-6" d="M77.49,229.15a34.09,34.09,0,0,1,2.27-8.5,33.77,33.77,0,0,1,0,8.8"/><path class="cls-6" d="M77.43,238a33.42,33.42,0,0,1-10.64-13.83A33.42,33.42,0,0,1,77.43,238Z"/><path class="cls-6" d="M71.22,244.35a34,34,0,0,1-7.62,4.4,33.9,33.9,0,0,1,6.2-6.24"/><path class="cls-6" d="M69.8,242.51a34,34,0,0,1,7.62-4.4,34.3,34.3,0,0,1-6.2,6.24"/><path class="cls-6" d="M88.14,251.94a33.43,33.43,0,0,1-10.65-13.82,33.43,33.43,0,0,1,10.65,13.82Z"/><path class="cls-6" d="M85.2,233.58A34.32,34.32,0,0,1,77.58,238a34.3,34.3,0,0,1,6.2-6.24"/><path class="cls-6" d="M83.78,231.75a34.32,34.32,0,0,1,7.62-4.41,33.9,33.9,0,0,1-6.2,6.24"/><path class="cls-6" d="M23,162.62a19.33,19.33,0,0,1-4.34-2.55,19.65,19.65,0,0,1-3.52-3.59A19.11,19.11,0,0,1,23,162.62Z"/><path class="cls-6" d="M20.46,167a19.51,19.51,0,0,1-3.6,3.52,20.06,20.06,0,0,1,2.55-4.34"/><path class="cls-6" d="M19.41,166.18a19.51,19.51,0,0,1,3.6-3.52A19.8,19.8,0,0,1,20.46,167"/><path class="cls-6" d="M30.91,168.8a19.8,19.8,0,0,1-4.34-2.55,19.51,19.51,0,0,1-3.52-3.6,20.06,20.06,0,0,1,4.34,2.55A19.51,19.51,0,0,1,30.91,168.8Z"/><path class="cls-6" d="M26.67,159.05a19.51,19.51,0,0,1-3.6,3.52,20.06,20.06,0,0,1,2.55-4.34"/><path class="cls-6" d="M25.62,158.23a19.51,19.51,0,0,1,3.6-3.52,19.8,19.8,0,0,1-2.55,4.34"/><path class="cls-6" d="M23,162.59a19.52,19.52,0,0,1-1.27-4.87,19.81,19.81,0,0,1,.05-5,19.52,19.52,0,0,1,1.27,4.87A19.81,19.81,0,0,1,23,162.59Z"/><path class="cls-6" d="M18.11,163.89a19.81,19.81,0,0,1-5,0A19.68,19.68,0,0,1,18,162.57"/><path class="cls-6" d="M18,162.57a19.87,19.87,0,0,1,5,.05,19.68,19.68,0,0,1-4.88,1.27"/><path class="cls-6" d="M24.23,172.55A19.94,19.94,0,0,1,23,167.68a19.24,19.24,0,0,1,.05-5,19.17,19.17,0,0,1,1.21,9.9Z"/><path class="cls-6" d="M28.13,162.66a19.77,19.77,0,0,1-5,0A19.52,19.52,0,0,1,28,161.34"/><path class="cls-6" d="M28,161.34a19.81,19.81,0,0,1,5,0,19.68,19.68,0,0,1-4.87,1.27"/><path class="cls-6" d="M125.43,79.05A33.69,33.69,0,0,1,114.1,65.78a33.3,33.3,0,0,1,11.33,13.27Z"/><path class="cls-6" d="M119.54,85.66a34.18,34.18,0,0,1-7.38,4.79A34.23,34.23,0,0,1,118,83.9"/><path class="cls-6" d="M118,83.9a34.11,34.11,0,0,1,7.39-4.79,34.09,34.09,0,0,1-5.89,6.55"/><path class="cls-6" d="M136.83,92.39a33.43,33.43,0,0,1-11.34-13.27,33.43,33.43,0,0,1,11.34,13.27Z"/><path class="cls-6" d="M133,74.2A34.11,34.11,0,0,1,125.57,79a34.09,34.09,0,0,1,5.89-6.55"/><path class="cls-6" d="M131.46,72.44a33.89,33.89,0,0,1,7.38-4.78A33.94,33.94,0,0,1,133,74.2"/><path class="cls-6" d="M125.46,79a33.45,33.45,0,0,1,1.37-17.4,34.36,34.36,0,0,1,.46,8.79A33.92,33.92,0,0,1,125.46,79Z"/><path class="cls-6" d="M116.61,79.51a34.16,34.16,0,0,1-8.6-1.84,34.3,34.3,0,0,1,8.79-.46"/><path class="cls-6" d="M116.8,77.21A33.91,33.91,0,0,1,125.4,79a34,34,0,0,1-8.79.47"/><path class="cls-6" d="M124.08,96.49a33.4,33.4,0,0,1,1.37-17.39,33.4,33.4,0,0,1-1.37,17.39Z"/><path class="cls-6" d="M134.2,80.9a34.16,34.16,0,0,1-8.6-1.84,34,34,0,0,1,8.79-.47"/><path class="cls-6" d="M134.39,78.59a34.16,34.16,0,0,1,8.6,1.84,34,34,0,0,1-8.79.47"/><path class="cls-3" d="M27.14,341A60.69,60.69,0,0,0,81,282.78V341Z"/><path class="cls-3" d="M55.86,341A60.69,60.69,0,0,0,2,399.22V341Z"/><path class="cls-3" d="M187.14,72A60.69,60.69,0,0,0,241,13.78V72Z"/><path class="cls-3" d="M293.86,0A60.69,60.69,0,0,0,240,58.22V0Z"/></svg>