<svg id="Livello_1" data-name="Livello 1" xmlns="http://www.w3.org/2000/svg" xmlns:xlink="http://www.w3.org/1999/xlink" viewBox="0 0 1920 414"><defs><style>.cls-1{fill:none;}.cls-2{fill:#434343;}.cls-3{fill:#b5b5b5;}.cls-4{fill:#4d4d4d;}.cls-5{fill:url(#_10_ppp_20_2);}.cls-6{fill:#2f65b2;}</style><pattern id="_10_ppp_20_2" data-name="10 ppp 20% 2" width="28.8" height="28.8" patternTransform="translate(82.84 62.63) rotate(-45) scale(0.84)" patternUnits="userSpaceOnUse" viewBox="0 0 28.8 28.8"><rect class="cls-1" width="28.8" height="28.8"/><path class="cls-2" d="M28.8,30.24a1.44,1.44,0,1,0-1.44-1.44A1.44,1.44,0,0,0,28.8,30.24Z"/><path class="cls-2" d="M14.4,30.24A1.44,1.44,0,1,0,13,28.8,1.44,1.44,0,0,0,14.4,30.24Z"/><path class="cls-2" d="M28.8,15.84a1.44,1.44,0,1,0-1.44-1.44A1.44,1.44,0,0,0,28.8,15.84Z"/><path class="cls-2" d="M14.4,15.84A1.44,1.44,0,1,0,13,14.4,1.44,1.44,0,0,0,14.4,15.84Z"/><path class="cls-2" d="M7.2,23A1.44,1.44,0,1,0,5.76,21.6,1.44,1.44,0,0,0,7.2,23Z"/><path class="cls-2" d="M21.6,23a1.44,1.44,0,1,0-1.44-1.44A1.44,1.44,0,0,0,21.6,23Z"/><path class="cls-2" d="M7.2,8.64A1.44,1.44,0,1,0,5.76,7.2,1.44,1.44,0,0,0,7.2,8.64Z"/><path class="cls-2" d="M21.6,8.64A1.44,1.44,0,1,0,20.16,7.2,1.44,1.44,0,0,0,21.6,8.64Z"/><path class="cls-2" d="M0,30.24A1.44,1.44,0,0,0,1.44,28.8,1.45,1.45,0,0,0,0,27.36,1.44,1.44,0,0,0-1.44,28.8,1.43,1.43,0,0,0,0,30.24Z"/><path class="cls-2" d="M0,15.84A1.44,1.44,0,0,0,1.44,14.4,1.45,1.45,0,0,0,0,13,1.44,1.44,0,0,0-1.44,14.4,1.43,1.43,0,0,0,0,15.84Z"/><path class="cls-2" d="M28.8,1.44A1.45,1.45,0,0,0,30.24,0,1.44,1.44,0,0,0,28.8-1.44,1.43,1.43,0,0,0,27.36,0,1.44,1.44,0,0,0,28.8,1.44Z"/><path class="cls-2" d="M14.4,1.44A1.45,1.45,0,0,0,15.84,0,1.44,1.44,0,0,0,14.4-1.44,1.43,1.43,0,0,0,13,0,1.44,1.44,0,0,0,14.4,1.44Z"/><path class="cls-2" d="M0,1.44A1.45,1.45,0,0,0,1.44,0,1.44,1.44,0,0,0,0-1.44,1.43,1.43,0,0,0-1.44,0,1.44,1.44,0,0,0,0,1.44Z"/></pattern></defs><title>sfondo sito</title><path class="cls-3" d="M1815.69,335.71l12.89,0,21.69.07h3.24c-1.48.47-3,.9-4.51,1.26l-20.42.06-8.11,0Q1818,336.48,1815.69,335.71Z"/><path class="cls-3" d="M1803.48,330.16l3.41,0,21.69-.06,21.69.07c5.16,0,10.33,0,15.5.05-.69.41-1.39.8-2.1,1.18l-13.4,0-21.69.07-21.69-.07h-1.19Q1804.58,330.8,1803.48,330.16Z"/><path class="cls-3" d="M1795.61,324.58l11.28,0,21.69-.06,21.69.06c7.22,0,14.45,0,21.68.1h1.65l-1.3,1.06H1872c-7.23.08-14.46.07-21.68.1l-21.69.06-21.69-.06-9.77,0C1796.61,325.41,1796.11,325,1795.61,324.58Z"/><path class="cls-3" d="M1789.77,319c5.71,0,11.42,0,17.12,0l21.69-.07,21.69.07c7.22,0,14.45,0,21.68.1l7.5.07c-.3.31-.59.63-.9.94l-6.6.06c-7.23.09-14.46.07-21.68.1l-21.69.07-21.69-.07c-5.33,0-10.67,0-16-.05C1790.5,319.81,1790.13,319.42,1789.77,319Z"/><path class="cls-3" d="M1785.23,313.48c7.22-.09,14.44-.07,21.66-.1l21.69-.07,21.69.07c7.22,0,14.45,0,21.68.1l12.06.11c-.21.29-.43.58-.65.86l-11.41.1c-7.23.09-14.46.07-21.68.1l-21.69.07-21.69-.06c-7,0-13.9,0-20.85-.1C1785.76,314.21,1785.49,313.84,1785.23,313.48Z"/><path class="cls-3" d="M1781.64,307.92l3.57,0c7.23-.09,14.46-.07,21.68-.1l21.69-.06,21.69.06c7.22,0,14.45,0,21.68.1l15.66.14-.46.8L1872,309c-7.23.08-14.46.06-21.68.09l-21.69.07-21.69-.07c-7.22,0-14.45,0-21.68-.09l-3,0C1782,308.6,1781.83,308.26,1781.64,307.92Z"/><path class="cls-3" d="M1778.83,302.35l6.38-.05c7.23-.09,14.46-.07,21.68-.1l21.69-.06,21.69.06c7.22,0,14.45,0,21.68.1l18.49.17-.34.74-18.15.16c-7.23.09-14.46.07-21.68.11l-21.69.06-21.69-.06c-7.22,0-14.45,0-21.68-.1l-6-.06C1779.12,303,1779,302.68,1778.83,302.35Z"/><path class="cls-3" d="M1776.68,296.79l8.53-.08c7.23-.08,14.46-.07,21.68-.1l21.69-.06,21.69.06c7.22,0,14.45,0,21.68.1l20.64.19c-.07.23-.15.46-.23.7l-20.41.19c-7.23.08-14.46.07-21.68.1l-21.69.06-21.69-.06c-7.22,0-14.45,0-21.68-.1l-8.21-.07Z"/><path class="cls-3" d="M1775.14,291.22l10.07-.1c7.23-.09,14.46-.06,21.68-.1l21.69-.06,21.68.06c7.23,0,14.46,0,21.69.1l21.68.2h.52c-.05.22-.1.45-.16.67h-.36l-21.68.2c-7.23.08-14.46.07-21.69.1l-21.68.06-21.69-.06c-7.22,0-14.45,0-21.68-.1l-9.86-.09Z"/><path class="cls-3" d="M1774.15,285.63l11.06-.1c7.23-.08,14.46-.07,21.68-.1l21.69-.06,21.69.07c7.22,0,14.45,0,21.68.09l21.68.2,1.52,0c0,.22-.05.43-.09.64l-1.43,0-21.68.2c-7.23.08-14.46.07-21.68.1l-21.69.06-21.69-.06c-7.22,0-14.45,0-21.68-.1l-10.94-.1C1774.22,286.22,1774.19,285.92,1774.15,285.63Z"/><path class="cls-3" d="M1773.68,280l11.53-.1c7.23-.08,14.46-.06,21.68-.1l21.69-.06,21.69.06c7.22,0,14.45,0,21.68.11l21.68.19,2,0c0,.21,0,.42,0,.63l-2,0L1872,281c-7.23.08-14.46.07-21.68.1l-21.69.06-21.69-.06c-7.22,0-14.45,0-21.68-.1l-11.49-.1C1773.7,280.62,1773.69,280.33,1773.68,280Z"/><path class="cls-3" d="M1773.68,275.33c0-.29,0-.58,0-.87l11.49-.11c7.23-.08,14.46-.06,21.68-.09l21.69-.07,21.69.07c7.22,0,14.45,0,21.68.1l21.68.19,2,0c0,.21,0,.42,0,.62l-2,0-21.68.2c-7.23.08-14.46.07-21.68.1l-21.69.06-21.69-.06c-7.22,0-14.45,0-21.68-.1Z"/><path class="cls-3" d="M1774.15,269.75c0-.3.07-.59.12-.89l10.94-.09c7.23-.09,14.46-.07,21.68-.1l21.69-.07,21.69.07c7.22,0,14.45,0,21.68.1l21.68.19,1.43,0c0,.21.06.43.09.64l-1.52,0-21.68.2c-7.23.09-14.46.07-21.68.1l-21.69.06-21.69-.06c-7.22,0-14.45,0-21.68-.09Z"/><path class="cls-3" d="M1775.14,264.16l.21-.89,9.86-.09c7.23-.09,14.46-.07,21.68-.11l21.69-.06,21.69.07c7.22,0,14.45,0,21.68.1l21.68.19h.36c.06.22.11.44.16.67h-.52l-21.68.19c-7.23.09-14.46.07-21.68.1l-21.69.07-21.69-.07c-7.22,0-14.45,0-21.68-.1Z"/><path class="cls-3" d="M1776.68,258.59l.32-.93,8.21-.07c7.23-.09,14.46-.07,21.68-.1l21.69-.06,21.69.06c7.22,0,14.45,0,21.68.1l20.41.19c.08.23.16.46.23.7l-20.64.19c-7.23.08-14.46.06-21.68.09l-21.69.06-21.69-.06c-7.22,0-14.45,0-21.68-.09Z"/><path class="cls-3" d="M1778.83,253c.14-.32.29-.64.43-1l6-.05c7.23-.09,14.46-.07,21.68-.1l21.69-.06,21.69.06c7.22,0,14.45,0,21.68.1l18.15.16.34.75-18.49.16c-7.23.09-14.46.07-21.68.11l-21.69.06-21.69-.06c-7.22,0-14.45,0-21.68-.1Z"/><path class="cls-3" d="M1781.64,247.46c.19-.34.39-.69.59-1l3,0c7.23-.08,14.46-.07,21.68-.1l21.69-.06,21.69.06c7.22,0,14.45,0,21.68.1l15.2.13.46.8-15.66.14c-7.23.09-14.46.07-21.68.1l-21.69.07-21.69-.06c-7.22,0-14.45,0-21.68-.1Z"/><path class="cls-3" d="M1785.23,241.9c.26-.37.53-.73.81-1.09,7-.08,13.9-.05,20.85-.09l21.69-.06,21.69.06c7.22,0,14.45,0,21.68.1l11.41.1.65.87-12.06.11c-7.23.08-14.46.06-21.68.1l-21.69.06-21.69-.06C1799.67,242,1792.45,242,1785.23,241.9Z"/><path class="cls-3" d="M1789.77,236.35l1.1-1.17c5.35,0,10.69,0,16-.05l21.69-.06,21.69.06c7.22,0,14.45,0,21.68.1l6.6.06.9,1-7.5.07c-7.23.08-14.46.06-21.68.1l-21.69.06-21.69-.06C1801.19,236.38,1795.48,236.39,1789.77,236.35Z"/><path class="cls-3" d="M1795.61,230.79c.5-.42,1-.82,1.51-1.22,3.26,0,6.52,0,9.77,0l21.69-.06,21.69.06c7.22,0,14.45,0,21.68.11h.35c.44.35.87.69,1.3,1l-1.65,0c-7.23.08-14.46.07-21.68.1l-21.69.06-21.69-.06Z"/><path class="cls-3" d="M1803.48,225.22q1.1-.65,2.22-1.26h1.19l21.69-.06,21.69.06,13.4,0c.71.39,1.41.78,2.1,1.19-5.17,0-10.34,0-15.5,0l-21.69.06-21.69-.06Z"/><path class="cls-3" d="M1815.69,219.67q2.36-.76,4.78-1.35l8.11,0,20.42.06c1.53.37,3,.79,4.51,1.27h-3.24l-21.69.06Z"/><path class="cls-4" d="M1836,396V274.65A60.69,60.69,0,1,1,1836,396Z"/><path class="cls-3" d="M1865.82,416a60.69,60.69,0,0,0,53.86-58.22V416Z"/><circle class="cls-5" cx="1760.49" cy="414.63" r="60.59"/><path class="cls-4" d="M1861.45,129.76l0,12.89-.07,21.68v3.24c-.48-1.47-.91-3-1.27-4.5l-.06-20.42,0-8.11Q1860.68,132.11,1861.45,129.76Z"/><path class="cls-4" d="M1867,117.55c0,1.13,0,2.27,0,3.41l.06,21.69-.07,21.68c0,5.17,0,10.33,0,15.51-.42-.69-.81-1.39-1.19-2.1,0-4.47,0-8.94,0-13.41l-.06-21.68.06-21.69c0-.4,0-.79,0-1.19C1866.15,119,1866.57,118.28,1867,117.55Z"/><path class="cls-4" d="M1872.58,109.68c0,3.76,0,7.52,0,11.28l.06,21.69-.06,21.68c0,7.23,0,14.46-.11,21.69v1.64c-.36-.42-.71-.86-1-1.3V186c-.08-7.23-.07-14.46-.1-21.69l-.06-21.68.06-21.69,0-9.77C1871.75,110.68,1872.16,110.18,1872.58,109.68Z"/><path class="cls-4" d="M1878.14,103.84c0,5.7,0,11.41,0,17.12l.07,21.69-.07,21.68c0,7.23,0,14.46-.1,21.69l-.07,7.49-.94-.89L1877,186c-.08-7.23-.07-14.46-.1-21.69l-.06-21.68.06-21.69c0-5.34,0-10.68,0-16C1877.35,104.56,1877.74,104.2,1878.14,103.84Z"/><path class="cls-4" d="M1883.68,99.29c.09,7.23.07,14.45.1,21.67l.07,21.69-.07,21.68c0,7.23,0,14.46-.1,21.69l-.1,12.06-.87-.65-.1-11.41c-.09-7.23-.07-14.46-.1-21.69l-.07-21.68.06-21.69c0-6.95,0-13.9.1-20.86Z"/><path class="cls-4" d="M1889.24,95.7l0,3.58c.08,7.23.06,14.45.09,21.68l.06,21.69-.06,21.68c0,7.23,0,14.46-.1,21.69l-.14,15.66-.8-.47L1888.2,186c-.09-7.23-.07-14.46-.1-21.69l-.07-21.68.07-21.69c0-7.23,0-14.45.1-21.68l0-3Z"/><path class="cls-4" d="M1894.81,92.89l0,6.39c.09,7.23.07,14.45.1,21.68l.06,21.69-.06,21.68c0,7.23,0,14.46-.1,21.69l-.16,18.49-.75-.34-.16-18.15c-.09-7.23-.07-14.46-.11-21.69l-.06-21.68.06-21.69c0-7.23,0-14.45.1-21.68l.06-6Z"/><path class="cls-4" d="M1900.37,90.75l.08,8.53c.09,7.23.07,14.45.1,21.68l.06,21.69-.06,21.68c0,7.23,0,14.46-.1,21.69l-.19,20.64-.7-.24-.18-20.4c-.09-7.23-.07-14.46-.11-21.69l-.06-21.68.06-21.69c0-7.23,0-14.45.1-21.68l.08-8.22Z"/><path class="cls-4" d="M1906,89.21l.09,10.07c.09,7.23.06,14.45.1,21.68l.06,21.69-.06,21.68c0,7.23,0,14.46-.1,21.69l-.2,21.68c0,.17,0,.35,0,.52l-.67-.16v-.36L1905,186c-.08-7.23-.07-14.46-.09-21.69l-.07-21.68.06-21.69c0-7.23,0-14.45.1-21.68l.09-9.86Q1905.5,89.3,1906,89.21Z"/><path class="cls-4" d="M1911.53,88.22l.1,11.06c.09,7.23.07,14.45.1,21.68l.06,21.69-.06,21.68c0,7.23,0,14.46-.1,21.69l-.2,21.68c0,.51,0,1,0,1.52l-.64-.09c0-.48,0-.95,0-1.43l-.2-21.68c-.08-7.23-.06-14.46-.1-21.69l-.06-21.68.06-21.69c0-7.23,0-14.45.1-21.68l.1-10.94C1910.94,88.29,1911.24,88.25,1911.53,88.22Z"/><path class="cls-4" d="M1917.12,87.75l.1,11.53c.08,7.23.07,14.45.1,21.68l.06,21.69-.06,21.68c0,7.23,0,14.46-.1,21.69l-.2,21.68,0,2-.63,0c0-.66,0-1.31,0-2l-.2-21.68c-.08-7.23-.07-14.46-.1-21.69l-.06-21.68L1916,121c0-7.23,0-14.45.1-21.68l.1-11.49Z"/><path class="cls-6" d="M1843.23,177.94a33.54,33.54,0,0,1,17.31,2.25,33.77,33.77,0,0,1-8.8,0A34.26,34.26,0,0,1,1843.23,177.94Z"/><path class="cls-6" d="M1843.17,169.09a34.26,34.26,0,0,1,2.27-8.51,33.8,33.8,0,0,1,0,8.8"/><path class="cls-6" d="M1845.46,169.38a34.26,34.26,0,0,1-2.27,8.51,34.33,34.33,0,0,1,0-8.8"/><path class="cls-6" d="M1825.83,175.68a33.58,33.58,0,0,1,17.31,2.25,33.58,33.58,0,0,1-17.31-2.25Z"/><path class="cls-6" d="M1840.9,186.58a34.09,34.09,0,0,1,2.27-8.5,34.3,34.3,0,0,1,0,8.8"/><path class="cls-6" d="M1843.19,186.88a34.26,34.26,0,0,1-2.27,8.51,33.86,33.86,0,0,1,0-8.81"/><path class="cls-6" d="M1843.25,178a33.42,33.42,0,0,1,10.64,13.83A33.42,33.42,0,0,1,1843.25,178Z"/><path class="cls-6" d="M1849.46,171.68a34,34,0,0,1,7.62-4.4,33.9,33.9,0,0,1-6.2,6.24"/><path class="cls-6" d="M1850.88,173.52a34,34,0,0,1-7.62,4.4,34.3,34.3,0,0,1,6.2-6.24"/><path class="cls-6" d="M1832.54,164.09a33.55,33.55,0,0,1,10.65,13.83,33.55,33.55,0,0,1-10.65-13.83Z"/><path class="cls-6" d="M1835.48,182.45a34.32,34.32,0,0,1,7.62-4.41,34.3,34.3,0,0,1-6.2,6.24"/><path class="cls-6" d="M1836.9,184.28a34.32,34.32,0,0,1-7.62,4.41,34.3,34.3,0,0,1,6.2-6.24"/><path class="cls-6" d="M1897.68,253.41A19.33,19.33,0,0,1,1902,256a19.65,19.65,0,0,1,3.52,3.59,19.11,19.11,0,0,1-7.86-6.14Z"/><path class="cls-6" d="M1900.22,249a19.51,19.51,0,0,1,3.6-3.52,19.8,19.8,0,0,1-2.55,4.34"/><path class="cls-6" d="M1901.27,249.85a19.51,19.51,0,0,1-3.6,3.52,19.8,19.8,0,0,1,2.55-4.34"/><path class="cls-6" d="M1889.77,247.23a19.8,19.8,0,0,1,4.34,2.55,19.51,19.51,0,0,1,3.52,3.6,20.06,20.06,0,0,1-4.34-2.55A19.51,19.51,0,0,1,1889.77,247.23Z"/><path class="cls-6" d="M1894,257a19.51,19.51,0,0,1,3.6-3.52,19.8,19.8,0,0,1-2.55,4.34"/><path class="cls-6" d="M1895.06,257.8a19.51,19.51,0,0,1-3.6,3.52A20.06,20.06,0,0,1,1894,257"/><path class="cls-6" d="M1897.67,253.44a19,19,0,0,1,1.22,9.9,19.52,19.52,0,0,1-1.27-4.87A19.81,19.81,0,0,1,1897.67,253.44Z"/><path class="cls-6" d="M1902.57,252.14a19.81,19.81,0,0,1,5,.05,19.68,19.68,0,0,1-4.87,1.27"/><path class="cls-6" d="M1902.73,253.46a19.87,19.87,0,0,1-5-.05,19.68,19.68,0,0,1,4.88-1.27"/><path class="cls-6" d="M1896.45,243.48a19.94,19.94,0,0,1,1.26,4.87,19.24,19.24,0,0,1,0,5,19.17,19.17,0,0,1-1.21-9.9Z"/><path class="cls-6" d="M1892.55,253.37a19.77,19.77,0,0,1,5,0,19.52,19.52,0,0,1-4.87,1.27"/><path class="cls-6" d="M1892.71,254.69a19.81,19.81,0,0,1-5-.05,19.68,19.68,0,0,1,4.87-1.27"/><path class="cls-6" d="M1795.25,337a33.51,33.51,0,0,1,11.33,13.27A33.48,33.48,0,0,1,1795.25,337Z"/><path class="cls-6" d="M1801.14,330.37a34.18,34.18,0,0,1,7.38-4.79,34.23,34.23,0,0,1-5.88,6.55"/><path class="cls-6" d="M1802.64,332.13a34.11,34.11,0,0,1-7.39,4.79,34.09,34.09,0,0,1,5.89-6.55"/><path class="cls-6" d="M1783.85,323.64a33.61,33.61,0,0,1,11.34,13.27,33.43,33.43,0,0,1-11.34-13.27Z"/><path class="cls-6" d="M1787.72,341.83a34.11,34.11,0,0,1,7.39-4.79,34.09,34.09,0,0,1-5.89,6.55"/><path class="cls-6" d="M1789.22,343.59a34.18,34.18,0,0,1-7.38,4.79,33.82,33.82,0,0,1,5.88-6.55"/><path class="cls-6" d="M1795.22,337a33.45,33.45,0,0,1-1.37,17.4,33.73,33.73,0,0,1,1.37-17.4Z"/><path class="cls-6" d="M1804.07,336.52a34.16,34.16,0,0,1,8.6,1.84,34.55,34.55,0,0,1-8.79.47"/><path class="cls-6" d="M1803.88,338.83a34.16,34.16,0,0,1-8.6-1.84,34,34,0,0,1,8.79-.47"/><path class="cls-6" d="M1796.6,319.54a33.45,33.45,0,0,1-1.37,17.4,33.45,33.45,0,0,1,1.37-17.4Z"/><path class="cls-6" d="M1786.48,335.13a34.16,34.16,0,0,1,8.6,1.84,34,34,0,0,1-8.79.47"/><path class="cls-6" d="M1786.29,337.44a34.16,34.16,0,0,1-8.6-1.84,34.55,34.55,0,0,1,8.79-.47"/><path class="cls-3" d="M1893.54,75a60.69,60.69,0,0,0-53.86,58.22V75Z"/><path class="cls-3" d="M1864.82,75a60.69,60.69,0,0,0,53.86-58.22V75Z"/><path class="cls-3" d="M1733.54,344a60.69,60.69,0,0,0-53.86,58.22V344Z"/><path class="cls-3" d="M1626.82,416a60.69,60.69,0,0,0,53.86-58.22V416Z"/></svg>
